<svg width="200" height="200" viewBox="0 0 200 200" fill="none" xmlns="http://www.w3.org/2000/svg">
  <rect width="200" height="200" rx="20" fill="#306998"/>
  <path d="M99.5 20C58.2 20 62.5 36.5 62.5 36.5L62.6 53.6H100.5V58.6H47.5C47.5 58.6 20 55.2 20 97C20 138.8 43.7 137.1 43.7 137.1H57.3V119.4C57.3 119.4 56.5 95.7 80.5 95.7H118C118 95.7 140.4 96.1 140.4 74.4V41.1C140.4 41.1 143.8 20 99.5 20ZM79.2 32.3C79.2 32.3 85.7 32.3 85.7 38.8C85.7 45.3 79.2 45.3 79.2 45.3C72.7 45.3 72.7 38.8 72.7 38.8C72.7 32.3 79.2 32.3 79.2 32.3Z" fill="#FFD43B"/>
  <path d="M100.5 180C141.8 180 137.5 163.5 137.5 163.5L137.4 146.4H99.5V141.4H152.5C152.5 141.4 180 144.8 180 103C180 61.2 156.3 62.9 156.3 62.9H142.7V80.6C142.7 80.6 143.5 104.3 119.5 104.3H82C82 104.3 59.6 103.9 59.6 125.6V158.9C59.6 158.9 56.2 180 100.5 180ZM120.8 167.7C120.8 167.7 114.3 167.7 114.3 161.2C114.3 154.7 120.8 154.7 120.8 154.7C127.3 154.7 127.3 161.2 127.3 161.2C127.3 167.7 120.8 167.7 120.8 167.7Z" fill="#FFD43B"/>
</svg>
